<svg width="24" height="24" viewBox="0 0 24 24" fill="none" xmlns="http://www.w3.org/2000/svg">
<g clip-path="url(#clip0_117_594)">
<path fill-rule="evenodd" clip-rule="evenodd" d="M17.8865 12.1465C17.5185 12.1465 17.1975 11.8755 17.1445 11.5005C17.0875 11.0895 17.3725 10.7105 17.7835 10.6535C18.8235 10.5075 19.6085 9.60551 19.6105 8.55351C19.6105 7.51051 18.8625 6.62851 17.8315 6.45951C17.4235 6.39251 17.1465 6.00651 17.2135 5.59751C17.2815 5.18851 17.6645 4.91451 18.0755 4.97951C19.8335 5.26851 21.1105 6.77251 21.1105 8.55551C21.1065 10.3505 19.7655 11.8905 17.9905 12.1395C17.9555 12.1445 17.9205 12.1465 17.8865 12.1465Z" fill="#4B5563"/>
<mask id="mask0_117_594" style="mask-type:alpha" maskUnits="userSpaceOnUse" x="18" y="14" width="5" height="5">
<path fill-rule="evenodd" clip-rule="evenodd" d="M18.978 14.0016H22.772V18.5312H18.978V14.0016Z" fill="white"/>
</mask>
<g mask="url(#mask0_117_594)">
<path fill-rule="evenodd" clip-rule="evenodd" d="M20.8613 18.5312C20.5593 18.5312 20.2743 18.3472 20.1603 18.0482C20.0123 17.6612 20.2073 17.2272 20.5943 17.0802C21.2723 16.8222 21.2723 16.5372 21.2723 16.4002C21.2723 15.9622 20.7153 15.6562 19.6173 15.4922C19.2083 15.4302 18.9253 15.0492 18.9863 14.6382C19.0473 14.2282 19.4273 13.9552 19.8403 14.0082C22.2633 14.3712 22.7723 15.5092 22.7723 16.4002C22.7723 16.9442 22.5583 17.9372 21.1283 18.4822C21.0403 18.5152 20.9503 18.5312 20.8613 18.5312Z" fill="#4B5563"/>
</g>
<path fill-rule="evenodd" clip-rule="evenodd" d="M11.8867 15.914C9.51073 15.914 6.67773 16.206 6.67773 17.596C6.67773 18.997 9.51073 19.291 11.8867 19.291C14.2627 19.291 17.0947 19 17.0947 17.613C17.0947 16.209 14.2627 15.914 11.8867 15.914ZM11.8867 20.791C10.2277 20.791 5.17773 20.791 5.17773 17.596C5.17773 14.414 10.2277 14.414 11.8867 14.414C13.5457 14.414 18.5947 14.414 18.5947 17.613C18.5947 20.791 13.7217 20.791 11.8867 20.791Z" fill="#4B5563"/>
<path fill-rule="evenodd" clip-rule="evenodd" d="M11.8864 5.5C10.1944 5.5 8.8184 6.877 8.8184 8.569C8.8154 9.389 9.1294 10.156 9.7044 10.735C10.2794 11.314 11.0454 11.635 11.8614 11.638L11.8864 12.388V11.638C13.5784 11.638 14.9554 10.262 14.9554 8.569C14.9554 6.877 13.5784 5.5 11.8864 5.5ZM11.8864 13.138H11.8594C10.6394 13.134 9.4964 12.656 8.6404 11.792C7.7824 10.929 7.3134 9.783 7.3184 8.566C7.3184 6.05 9.3674 4 11.8864 4C14.4064 4 16.4554 6.05 16.4554 8.569C16.4554 11.088 14.4064 13.138 11.8864 13.138Z" fill="#4B5563"/>
<path fill-rule="evenodd" clip-rule="evenodd" d="M5.8856 12.1465C5.8516 12.1465 5.8166 12.1445 5.7816 12.1395C4.0066 11.8905 2.6666 10.3505 2.6626 8.5575C2.6626 6.7725 3.9396 5.2685 5.6976 4.9795C6.1186 4.9135 6.4916 5.1905 6.5596 5.5975C6.6266 6.0065 6.3496 6.3925 5.9416 6.4595C4.9106 6.6285 4.1626 7.5105 4.1626 8.5555C4.1646 9.6055 4.9496 10.5085 5.9886 10.6535C6.3996 10.7105 6.6846 11.0895 6.6276 11.5005C6.5746 11.8755 6.2536 12.1465 5.8856 12.1465Z" fill="#4B5563"/>
<path fill-rule="evenodd" clip-rule="evenodd" d="M2.912 18.5312C2.823 18.5312 2.733 18.5152 2.645 18.4822C1.214 17.9362 1 16.9432 1 16.4002C1 15.5102 1.509 14.3712 3.933 14.0082C4.346 13.9562 4.724 14.2282 4.786 14.6382C4.847 15.0492 4.564 15.4302 4.155 15.4922C3.057 15.6562 2.5 15.9622 2.5 16.4002C2.5 16.5372 2.5 16.8212 3.179 17.0802C3.566 17.2272 3.761 17.6612 3.613 18.0482C3.499 18.3472 3.214 18.5312 2.912 18.5312Z" fill="#4B5563"/>
</g>
<defs>
<clipPath id="clip0_117_594">
<rect width="24" height="24" fill="white"/>
</clipPath>
</defs>
</svg>
