<svg width="28" height="28" viewBox="0 0 28 28" fill="none" xmlns="http://www.w3.org/2000/svg">
<path fill-rule="evenodd" clip-rule="evenodd" d="M15.1043 6.17701L16.9317 9.82776C17.1108 10.1862 17.4565 10.4347 17.8573 10.4922L21.9453 11.0806C22.9554 11.2264 23.3573 12.4505 22.6263 13.1519L19.6702 15.9924C19.3797 16.2718 19.2474 16.6733 19.3162 17.0676L20.0138 21.0778C20.1856 22.0698 19.1298 22.8267 18.227 22.3574L14.5732 20.4627C14.215 20.2768 13.786 20.2768 13.4268 20.4627L9.773 22.3574C8.87023 22.8267 7.81439 22.0698 7.98724 21.0778L8.68385 17.0676C8.75257 16.6733 8.62033 16.2718 8.32982 15.9924L5.37368 13.1519C4.64272 12.4505 5.04464 11.2264 6.05466 11.0806L10.1427 10.4922C10.5435 10.4347 10.8903 10.1862 11.0694 9.82776L12.8957 6.17701C13.3477 5.27433 14.6523 5.27433 15.1043 6.17701Z" stroke="#4B5563" stroke-width="1.5" stroke-linecap="round" stroke-linejoin="round"/>
</svg>
